<svg width="195" height="41" viewBox="0 0 195 41" fill="none" xmlns="http://www.w3.org/2000/svg">
<path d="M54.7092 27.7345V7.10883H59.7141V31.5919H55.2192L54.7092 27.7345ZM43.966 23.1758V22.8411C43.966 21.5341 44.1094 20.3439 44.3963 19.2706C44.6939 18.1868 45.1242 17.257 45.6874 16.4812C46.2612 15.6949 46.9679 15.0892 47.8074 14.6641C48.6468 14.2391 49.6085 14.0266 50.6924 14.0266C51.6913 14.0266 52.5626 14.2497 53.3065 14.696C54.0503 15.1317 54.6826 15.748 55.2033 16.545C55.7346 17.3313 56.165 18.2611 56.4944 19.3344C56.8238 20.397 57.0735 21.55 57.2435 22.7933V23.3671C57.0841 24.5572 56.8344 25.6677 56.4944 26.6984C56.165 27.7292 55.7346 28.6377 55.2033 29.4241C54.6826 30.1998 54.045 30.8108 53.2905 31.2571C52.5467 31.6928 51.67 31.9106 50.6605 31.9106C49.5766 31.9106 48.615 31.6928 47.7755 31.2571C46.9466 30.8215 46.2506 30.2104 45.6874 29.4241C45.1242 28.6377 44.6939 27.7133 44.3963 26.6506C44.1094 25.588 43.966 24.4297 43.966 23.1758ZM48.9391 22.8411V23.1758C48.9391 23.8559 48.9869 24.4882 49.0825 25.0726C49.1888 25.6571 49.3588 26.1724 49.5926 26.6187C49.8264 27.065 50.1345 27.4157 50.5171 27.6707C50.8996 27.9152 51.3672 28.0374 51.9197 28.0374C52.6636 28.0374 53.2746 27.8673 53.7528 27.5273C54.231 27.1766 54.5923 26.6931 54.8367 26.0768C55.0811 25.4605 55.2086 24.7432 55.2192 23.925V22.2513C55.2192 21.5712 55.1501 20.9602 55.012 20.4183C54.8739 19.8763 54.6666 19.4194 54.3904 19.0475C54.1247 18.6756 53.79 18.394 53.3862 18.2027C52.9824 18.0008 52.5042 17.8999 51.9516 17.8999C51.4097 17.8999 50.9474 18.0274 50.5649 18.2824C50.1823 18.5268 49.8689 18.8722 49.6245 19.3185C49.3907 19.7648 49.2153 20.2908 49.0985 20.8965C48.9922 21.4915 48.9391 22.1398 48.9391 22.8411ZM71.1587 31.9106C69.7879 31.9106 68.5606 31.6928 67.4767 31.2571C66.3928 30.8215 65.4736 30.2211 64.7191 29.456C63.9753 28.6802 63.4068 27.7876 63.0136 26.7781C62.6204 25.7686 62.4239 24.6901 62.4239 23.5424V22.9367C62.4239 21.6509 62.6045 20.4661 62.9658 19.3822C63.3271 18.2983 63.8531 17.3579 64.5438 16.5609C65.2451 15.7533 66.1059 15.1317 67.126 14.696C68.1461 14.2497 69.3097 14.0266 70.6167 14.0266C71.8388 14.0266 72.928 14.2285 73.8843 14.6323C74.8407 15.0254 75.6483 15.5939 76.3071 16.3378C76.966 17.071 77.4654 17.9583 77.8054 18.9997C78.1561 20.0304 78.3314 21.1887 78.3314 22.4745V24.5147H64.4322V21.3109H73.454V20.9284C73.454 20.3227 73.3424 19.7913 73.1192 19.3344C72.9067 18.8775 72.5879 18.5268 72.1629 18.2824C71.7484 18.0274 71.2224 17.8999 70.5849 17.8999C69.9792 17.8999 69.4744 18.0274 69.0706 18.2824C68.6668 18.5374 68.3427 18.8987 68.0983 19.3663C67.8645 19.8232 67.6945 20.3598 67.5882 20.9762C67.482 21.5819 67.4289 22.2354 67.4289 22.9367V23.5424C67.4289 24.2119 67.5192 24.8229 67.6998 25.3755C67.8805 25.928 68.1461 26.4009 68.4968 26.7941C68.8475 27.1873 69.2725 27.4954 69.772 27.7186C70.2714 27.9417 70.8399 28.0533 71.4775 28.0533C72.2638 28.0533 73.013 27.9045 73.7249 27.607C74.4369 27.2988 75.0532 26.8206 75.5739 26.1724L77.9011 28.8343C77.5504 29.3444 77.0563 29.8385 76.4187 30.3167C75.7918 30.7843 75.0373 31.1668 74.1553 31.4643C73.2733 31.7619 72.2745 31.9106 71.1587 31.9106ZM88.8834 31.9106C87.5126 31.9106 86.2852 31.6928 85.2014 31.2571C84.1175 30.8215 83.1983 30.2211 82.4438 29.456C81.7 28.6802 81.1315 27.7876 80.7383 26.7781C80.3451 25.7686 80.1485 24.6901 80.1485 23.5424V22.9367C80.1485 21.6509 80.3292 20.4661 80.6905 19.3822C81.0518 18.2983 81.5778 17.3579 82.2685 16.5609C82.9698 15.7533 83.8306 15.1317 84.8507 14.696C85.8708 14.2497 87.0344 14.0266 88.3414 14.0266C89.5635 14.0266 90.6527 14.2285 91.609 14.6323C92.5654 15.0254 93.373 15.5939 94.0318 16.3378C94.6907 17.071 95.1901 17.9583 95.5301 18.9997C95.8808 20.0304 96.0561 21.1887 96.0561 22.4745V24.5147H82.1569V21.3109H91.1787V20.9284C91.1787 20.3227 91.0671 19.7913 90.8439 19.3344C90.6314 18.8775 90.3126 18.5268 89.8876 18.2824C89.4731 18.0274 88.9471 17.8999 88.3096 17.8999C87.7039 17.8999 87.1991 18.0274 86.7953 18.2824C86.3915 18.5374 86.0674 18.8987 85.823 19.3663C85.5892 19.8232 85.4192 20.3598 85.3129 20.9762C85.2067 21.5819 85.1535 22.2354 85.1535 22.9367V23.5424C85.1535 24.2119 85.2439 24.8229 85.4245 25.3755C85.6052 25.928 85.8708 26.4009 86.2215 26.7941C86.5722 27.1873 86.9972 27.4954 87.4966 27.7186C87.9961 27.9417 88.5646 28.0533 89.2022 28.0533C89.9885 28.0533 90.7377 27.9045 91.4496 27.607C92.1616 27.2988 92.7779 26.8206 93.2986 26.1724L95.6258 28.8343C95.2751 29.3444 94.781 29.8385 94.1434 30.3167C93.5164 30.7843 92.762 31.1668 91.88 31.4643C90.998 31.7619 89.9991 31.9106 88.8834 31.9106ZM103.468 17.6608V38.2227H98.4949V14.3454H103.133L103.468 17.6608ZM114.227 22.7773V23.1121C114.227 24.366 114.084 25.5295 113.797 26.6028C113.51 27.6654 113.079 28.5952 112.506 29.3922C111.942 30.1892 111.246 30.8108 110.418 31.2571C109.589 31.6928 108.627 31.9106 107.533 31.9106C106.491 31.9106 105.588 31.6928 104.823 31.2571C104.068 30.8108 103.431 30.1945 102.91 29.4082C102.4 28.6112 101.986 27.7026 101.667 26.6825C101.359 25.6517 101.12 24.5519 100.95 23.383V22.7295C101.12 21.4862 101.364 20.3333 101.683 19.2706C102.002 18.208 102.416 17.2888 102.926 16.5131C103.436 15.7268 104.068 15.1158 104.823 14.6801C105.577 14.2444 106.475 14.0266 107.517 14.0266C108.601 14.0266 109.562 14.2338 110.402 14.6482C111.241 15.0626 111.942 15.6577 112.506 16.4334C113.079 17.1985 113.51 18.1177 113.797 19.1909C114.084 20.2642 114.227 21.4597 114.227 22.7773ZM109.238 23.1121V22.7773C109.238 22.076 109.185 21.4331 109.079 20.8487C108.972 20.2536 108.802 19.7382 108.569 19.3025C108.335 18.8562 108.027 18.5109 107.644 18.2665C107.262 18.0221 106.794 17.8999 106.241 17.8999C105.646 17.8999 105.142 17.9955 104.727 18.1868C104.313 18.378 103.978 18.6596 103.723 19.0316C103.468 19.3928 103.282 19.8392 103.165 20.3705C103.059 20.9018 103 21.5075 102.99 22.1876V23.9409C103 24.7379 103.112 25.4498 103.325 26.0768C103.548 26.6931 103.893 27.1766 104.361 27.5273C104.839 27.8673 105.476 28.0374 106.273 28.0374C106.837 28.0374 107.304 27.9152 107.676 27.6707C108.059 27.4157 108.361 27.0597 108.585 26.6028C108.818 26.1459 108.983 25.6199 109.079 25.0248C109.185 24.4297 109.238 23.7921 109.238 23.1121Z" fill="#4B4B4B"/>
<path d="M122.117 7.10883V31.5919H117.128V7.10883H122.117ZM133.833 31.9106C132.462 31.9106 131.235 31.6928 130.151 31.2571C129.067 30.8215 128.148 30.2211 127.393 29.456C126.649 28.6802 126.081 27.7876 125.688 26.7781C125.294 25.7686 125.098 24.6901 125.098 23.5424V22.9367C125.098 21.6509 125.279 20.4661 125.64 19.3822C126.001 18.2983 126.527 17.3579 127.218 16.5609C127.919 15.7533 128.78 15.1317 129.8 14.696C130.82 14.2497 131.984 14.0266 133.291 14.0266C134.513 14.0266 135.602 14.2285 136.558 14.6323C137.515 15.0254 138.322 15.5939 138.981 16.3378C139.64 17.071 140.139 17.9583 140.479 18.9997C140.83 20.0304 141.005 21.1887 141.005 22.4745V24.5147H127.106V21.3109H136.128V20.9284C136.128 20.3227 136.016 19.7913 135.793 19.3344C135.581 18.8775 135.262 18.5268 134.837 18.2824C134.422 18.0274 133.896 17.8999 133.259 17.8999C132.653 17.8999 132.148 18.0274 131.745 18.2824C131.341 18.5374 131.017 18.8987 130.772 19.3663C130.539 19.8232 130.369 20.3598 130.262 20.9762C130.156 21.5819 130.103 22.2354 130.103 22.9367V23.5424C130.103 24.2119 130.193 24.8229 130.374 25.3755C130.554 25.928 130.82 26.4009 131.171 26.7941C131.521 27.1873 131.947 27.4954 132.446 27.7186C132.945 27.9417 133.514 28.0533 134.151 28.0533C134.938 28.0533 135.687 27.9045 136.399 27.607C137.111 27.2988 137.727 26.8206 138.248 26.1724L140.575 28.8343C140.224 29.3444 139.73 29.8385 139.093 30.3167C138.466 30.7843 137.711 31.1668 136.829 31.4643C135.947 31.7619 134.948 31.9106 133.833 31.9106ZM152.562 27.4795V20.0836C152.562 19.5629 152.482 19.1166 152.322 18.7446C152.163 18.3727 151.913 18.0805 151.573 17.868C151.233 17.6554 150.792 17.5492 150.25 17.5492C149.793 17.5492 149.395 17.6289 149.055 17.7883C148.725 17.9477 148.47 18.1761 148.29 18.4737C148.12 18.7712 148.035 19.1378 148.035 19.5735H143.062C143.062 18.7978 143.237 18.0752 143.588 17.4057C143.938 16.7363 144.438 16.1465 145.086 15.6364C145.745 15.1264 146.531 14.7332 147.445 14.4569C148.359 14.17 149.384 14.0266 150.521 14.0266C151.871 14.0266 153.072 14.255 154.124 14.712C155.186 15.1583 156.026 15.833 156.642 16.7363C157.258 17.6289 157.567 18.7553 157.567 20.1154V27.336C157.567 28.3774 157.625 29.1956 157.742 29.7907C157.869 30.3751 158.05 30.8852 158.284 31.3209V31.5919H153.263C153.029 31.0924 152.854 30.4761 152.737 29.7429C152.62 28.999 152.562 28.2446 152.562 27.4795ZM153.183 21.0718L153.215 23.8134H150.744C150.192 23.8134 149.714 23.8825 149.31 24.0206C148.917 24.1588 148.598 24.35 148.354 24.5944C148.109 24.8282 147.928 25.1045 147.812 25.4233C147.705 25.7314 147.652 26.0715 147.652 26.4434C147.652 26.7941 147.737 27.1129 147.907 27.3998C148.077 27.6761 148.311 27.8939 148.609 28.0533C148.906 28.2127 149.251 28.2924 149.645 28.2924C150.293 28.2924 150.845 28.1649 151.302 27.9098C151.77 27.6548 152.131 27.3466 152.386 26.9854C152.641 26.6134 152.769 26.2681 152.769 25.9493L153.964 28.0214C153.773 28.4465 153.539 28.8875 153.263 29.3444C152.987 29.7907 152.636 30.2104 152.211 30.6036C151.786 30.9862 151.27 31.2996 150.665 31.544C150.07 31.7884 149.352 31.9106 148.513 31.9106C147.429 31.9106 146.446 31.6928 145.564 31.2571C144.682 30.8108 143.975 30.1998 143.444 29.4241C142.923 28.6484 142.663 27.7558 142.663 26.7463C142.663 25.843 142.828 25.0407 143.157 24.3394C143.487 23.6381 143.981 23.043 144.64 22.5542C145.309 22.0654 146.149 21.6988 147.158 21.4544C148.168 21.1993 149.347 21.0718 150.697 21.0718H153.183ZM170.876 27.7345V7.10883H175.881V31.5919H171.386L170.876 27.7345ZM160.133 23.1758V22.8411C160.133 21.5341 160.276 20.3439 160.563 19.2706C160.861 18.1868 161.291 17.257 161.854 16.4812C162.428 15.6949 163.135 15.0892 163.974 14.6641C164.814 14.2391 165.775 14.0266 166.859 14.0266C167.858 14.0266 168.73 14.2497 169.473 14.696C170.217 15.1317 170.849 15.748 171.37 16.545C171.901 17.3313 172.332 18.2611 172.661 19.3344C172.991 20.397 173.24 21.55 173.41 22.7933V23.3671C173.251 24.5572 173.001 25.6677 172.661 26.6984C172.332 27.7292 171.901 28.6377 171.37 29.4241C170.849 30.1998 170.212 30.8108 169.457 31.2571C168.714 31.6928 167.837 31.9106 166.827 31.9106C165.744 31.9106 164.782 31.6928 163.942 31.2571C163.113 30.8215 162.417 30.2104 161.854 29.4241C161.291 28.6377 160.861 27.7133 160.563 26.6506C160.276 25.588 160.133 24.4297 160.133 23.1758ZM165.106 22.8411V23.1758C165.106 23.8559 165.154 24.4882 165.249 25.0726C165.356 25.6571 165.526 26.1724 165.759 26.6187C165.993 27.065 166.301 27.4157 166.684 27.6707C167.066 27.9152 167.534 28.0374 168.087 28.0374C168.83 28.0374 169.441 27.8673 169.92 27.5273C170.398 27.1766 170.759 26.6931 171.004 26.0768C171.248 25.4605 171.375 24.7432 171.386 23.925V22.2513C171.386 21.5712 171.317 20.9602 171.179 20.4183C171.041 19.8763 170.834 19.4194 170.557 19.0475C170.292 18.6756 169.957 18.394 169.553 18.2027C169.149 18.0008 168.671 17.8999 168.118 17.8999C167.577 17.8999 167.114 18.0274 166.732 18.2824C166.349 18.5268 166.036 18.8722 165.791 19.3185C165.558 19.7648 165.382 20.2908 165.265 20.8965C165.159 21.4915 165.106 22.1398 165.106 22.8411ZM188.378 26.7941C188.378 26.4753 188.277 26.1937 188.075 25.9493C187.883 25.7049 187.533 25.4817 187.023 25.2798C186.523 25.0779 185.817 24.876 184.903 24.6741C184.042 24.4935 183.24 24.2597 182.496 23.9728C181.752 23.6753 181.104 23.3193 180.551 22.9048C179.999 22.4798 179.568 21.9804 179.26 21.4065C178.952 20.8221 178.798 20.1579 178.798 19.4141C178.798 18.6915 178.952 18.0061 179.26 17.3579C179.579 16.7097 180.036 16.1359 180.631 15.6364C181.237 15.137 181.97 14.7438 182.831 14.4569C183.702 14.17 184.69 14.0266 185.795 14.0266C187.315 14.0266 188.627 14.2657 189.732 14.7438C190.838 15.2114 191.688 15.8702 192.283 16.7203C192.878 17.5598 193.175 18.5215 193.175 19.6054H188.202C188.202 19.1591 188.117 18.7712 187.947 18.4418C187.777 18.1124 187.517 17.8573 187.166 17.6767C186.815 17.4854 186.353 17.3898 185.779 17.3898C185.333 17.3898 184.94 17.4695 184.6 17.6289C184.27 17.7777 184.01 17.9849 183.819 18.2505C183.638 18.5162 183.548 18.8243 183.548 19.175C183.548 19.4194 183.601 19.6426 183.707 19.8445C183.824 20.0357 184 20.2164 184.233 20.3864C184.478 20.5458 184.791 20.6893 185.174 20.8168C185.567 20.9443 186.045 21.0665 186.608 21.1834C187.809 21.4065 188.904 21.72 189.892 22.1238C190.891 22.5276 191.688 23.0855 192.283 23.7975C192.888 24.5094 193.191 25.4498 193.191 26.6187C193.191 27.3838 193.016 28.0852 192.665 28.7228C192.325 29.3603 191.831 29.9182 191.183 30.3964C190.535 30.8746 189.759 31.2465 188.856 31.5122C187.952 31.7778 186.932 31.9106 185.795 31.9106C184.17 31.9106 182.793 31.6184 181.667 31.034C180.541 30.4495 179.691 29.7163 179.117 28.8343C178.554 27.9417 178.272 27.0279 178.272 26.0927H182.942C182.963 26.6666 183.107 27.1341 183.373 27.4954C183.649 27.8567 184.005 28.1224 184.441 28.2924C184.876 28.4518 185.365 28.5315 185.907 28.5315C186.449 28.5315 186.9 28.4571 187.262 28.3083C187.623 28.1596 187.899 27.9577 188.091 27.7026C188.282 27.437 188.378 27.1341 188.378 26.7941Z" fill="#2171AC"/>
<path d="M17.9604 0.138404C15.1762 0.535873 11.7953 1.99799 9.45147 3.8008C8.47131 4.56734 6.66724 6.39854 5.88596 7.4348C5.11887 8.45686 5.04785 9.02467 5.63026 9.47892C6.2695 9.98995 6.41155 9.90478 8.27243 7.66192C11.4402 3.84338 16.966 1.51535 21.8952 1.89862C23.4152 2.02638 23.8556 1.82765 23.8556 1.0753C23.8556 0.493287 23.7419 0.322943 23.2447 0.138404C22.776 -0.0461348 19.1963 -0.0461348 17.9604 0.138404Z" fill="#2171AC"/>
<path d="M25.8727 0.876519C25.1767 1.61468 25.4892 2.04053 27.4495 3.00582C28.3444 3.44587 29.5803 4.18403 30.2053 4.65247C33.2736 6.96631 35.5891 10.4584 36.4272 14.0356C36.7255 15.2848 36.9528 15.5971 37.5636 15.5971C38.0182 15.5971 38.3591 15.3273 38.5296 14.8589C38.5722 14.7311 38.4586 14.0214 38.2597 13.2974C36.825 7.93159 33.16 3.53104 28.1882 1.17462C26.6966 0.464855 26.2989 0.408073 25.8727 0.876519Z" fill="#2171AC"/>
<path d="M18.6709 3.53108C17.4209 3.70142 15.7021 4.12728 14.7929 4.52475C13.9548 4.89383 13.6281 5.41906 13.9264 5.97268C14.2815 6.63985 14.5798 6.66825 16.2845 6.10043C23.4439 3.70142 30.8874 7.61933 33.1887 14.9867C33.5722 16.2075 33.5864 16.3211 33.5864 19.7563C33.5864 23.078 33.6006 23.291 33.8563 23.4897C34.2399 23.7594 34.6944 23.7452 35.0638 23.4329C35.774 22.8651 35.8451 17.4141 35.1774 14.8589C33.7285 9.30858 29.2822 5.02159 23.728 3.81499C22.2365 3.48849 20.0062 3.36074 18.6709 3.53108Z" fill="#2171AC"/>
<path d="M10.1338 7.94579C8.34398 9.69181 6.90925 12.1334 6.24161 14.6034C5.88647 15.8952 5.82965 16.2642 5.6734 18.5071C5.60237 19.6001 5.43191 20.8493 5.30406 21.2752C4.72165 23.2199 3.42897 25.0795 1.76696 26.3429C0.587926 27.2372 0.374848 27.6347 0.801005 28.2025C1.39762 29.0116 2.22153 28.6851 4.08241 26.8965C5.16201 25.8603 5.97171 24.7247 6.59674 23.3477C7.29279 21.8146 7.52008 20.7925 7.66213 18.4787C7.83259 15.81 8.03146 14.9441 8.92639 12.9851C9.46619 11.7785 10.2617 10.6429 11.4975 9.29434C12.3783 8.34326 12.5061 8.13033 12.4209 7.80383C12.3072 7.33539 12.0942 7.12246 11.6112 7.0089C11.256 6.92372 11.0856 7.02309 10.1338 7.94579Z" fill="#2171AC"/>
<path d="M18.5283 7.29278C16.3975 7.76122 14.5935 8.71231 13.0167 10.1886C11.7808 11.3526 10.8859 12.6018 10.2751 14.0072C9.55061 15.668 9.69266 16.5907 10.6728 16.5907C11.1984 16.5907 11.582 16.1932 11.8376 15.3699C12.3064 13.9078 13.5565 12.1618 14.8918 11.0971C16.5538 9.79115 18.6135 9.06719 20.8154 9.02461C21.8807 8.99622 22.1791 8.93944 22.4205 8.72651C22.8467 8.34323 22.8041 7.73283 22.3495 7.37795C22.0228 7.12243 21.7813 7.07985 20.6733 7.09404C19.963 7.09404 18.9971 7.19341 18.5283 7.29278Z" fill="#2171AC"/>
<path d="M25.3477 8.71236C24.7085 9.33695 24.8789 9.72022 26.1432 10.5577C28.899 12.3889 30.5326 15.5545 30.5326 19.0324C30.5326 21.5875 29.8507 26.0448 29.1121 28.4155C28.9558 28.8981 28.828 29.4659 28.828 29.6788C28.828 30.5022 29.8081 30.9422 30.3763 30.3744C30.8025 29.9486 31.5838 27.0953 32.0241 24.3414C32.3509 22.2831 32.5213 18.9046 32.3651 17.3857C32.0241 13.9788 30.1633 10.9126 27.2654 8.98207C26.2142 8.2723 25.8307 8.21552 25.3477 8.71236Z" fill="#2171AC"/>
<path d="M19.9493 10.9126C19.3527 11.5798 19.8214 12.4741 20.7874 12.4741C21.5545 12.4741 23.0176 12.829 23.6995 13.1697C24.5802 13.6239 25.7592 14.8021 26.228 15.6964C26.8672 16.9172 27.0093 17.698 26.9524 19.7421C26.924 21.332 26.9382 21.5591 27.1797 21.8288C27.5207 22.1979 28.1741 22.2121 28.5292 21.8572C29.0974 21.2894 29.0974 17.9393 28.5434 16.1507C27.5917 13.0277 24.3955 10.6287 21.2277 10.6287C20.3896 10.6287 20.1624 10.6855 19.9493 10.9126Z" fill="#2171AC"/>
<path d="M4.20985 11.1681C3.62744 11.8069 3.01661 14.5182 2.88876 16.9456C2.76092 19.7137 2.32056 20.8352 0.829007 22.2973C-0.0659222 23.1632 -0.179564 23.5181 0.218182 24.0859C0.37444 24.313 0.573313 24.3982 0.928443 24.3982C1.3404 24.3982 1.58188 24.2562 2.27794 23.589C3.99677 21.9566 4.6076 20.4519 4.82067 17.3999C4.96273 15.2848 5.09057 14.4756 5.47412 13.1839C5.87186 11.8637 5.87186 11.5372 5.54514 11.2107C5.17581 10.8416 4.52237 10.8275 4.20985 11.1681Z" fill="#2171AC"/>
<path d="M15.1198 13.0703C13.4862 14.7596 12.989 16.0797 12.7759 19.2169C12.6055 22.0134 12.1935 23.6174 11.0571 26.0874C10.5599 27.1521 10.6025 27.5637 11.2134 27.876C11.881 28.2167 12.3072 27.9328 12.8896 26.7546C13.9834 24.5827 14.7647 21.3178 14.7647 19.0181C14.7647 17.0166 15.4607 15.3274 16.8102 14.064C17.5631 13.3542 17.6625 12.8574 17.1369 12.3605C16.5687 11.8211 16.2136 11.9489 15.1198 13.0703Z" fill="#2171AC"/>
<path d="M20.0914 14.1775C19.1965 14.3621 18.5004 14.7028 17.8896 15.2564C16.7816 16.2642 16.327 17.4425 16.327 19.3588C16.327 19.9834 16.2276 21.0623 16.114 21.772C15.8441 23.4187 15.8441 23.4897 16.185 23.8303C16.5401 24.1852 17.2078 24.1994 17.5345 23.8303C17.8896 23.4329 18.1453 22.0417 18.259 19.9266C18.33 18.5071 18.4152 17.9393 18.6283 17.4708C19.4948 15.6113 22.2222 15.6255 23.1598 17.4708C23.4439 18.0387 23.4581 18.2232 23.387 19.9976C23.2592 23.078 22.6058 26.0022 21.3841 29.04C20.9437 30.1331 20.8869 30.3886 21.029 30.6867C21.3699 31.4248 22.3217 31.4674 22.762 30.7577C23.1029 30.2324 24.0973 27.4218 24.4808 25.9312C25.0206 23.8303 25.319 21.5449 25.3332 19.4298C25.3474 17.6128 25.3332 17.4708 24.9496 16.7043C24.0547 14.8873 21.9523 13.7943 20.0914 14.1775Z" fill="#2171AC"/>
<path d="M37.2937 17.7547C37.1801 17.9535 37.0522 18.6916 36.9954 19.6427C36.7681 23.6032 36.0579 27.1378 34.7226 31.0557C34.4527 31.8791 34.2254 32.6882 34.2254 32.8444C34.2254 33.6251 35.4044 33.909 35.9158 33.256C36.2425 32.8444 37.1801 30.0763 37.7057 27.9896C38.3591 25.3492 38.7284 22.936 38.9841 19.4298C39.0694 18.3225 39.041 18.1806 38.7711 17.8257C38.3733 17.3289 37.592 17.2863 37.2937 17.7547Z" fill="#2171AC"/>
<path d="M20.1628 19.0039C19.9639 19.2027 19.8787 19.4724 19.8787 19.9266C19.8787 20.8067 19.5093 23.2341 19.1684 24.5685C17.9894 29.1394 15.3756 33.3696 11.6964 36.6061C11.2987 36.961 10.901 37.3869 10.8157 37.5572C10.4606 38.2102 11.1851 39.0193 11.9663 38.8206C12.151 38.778 12.9323 38.1534 13.6852 37.4437C18.3871 33.0005 21.1003 27.5211 21.7253 21.1616C21.8816 19.5718 21.8248 19.1175 21.3844 18.8336C21.0861 18.6349 20.4469 18.72 20.1628 19.0039Z" fill="#2171AC"/>
<path d="M9.66456 19.2595C9.42307 19.444 9.28102 19.8415 9.08215 20.8493C8.65599 23.0212 8.07357 24.4549 6.90875 26.1726C6.19849 27.2088 4.70694 28.7135 3.75519 29.3523C2.66138 30.0905 2.40569 30.3744 2.40569 30.8144C2.40569 31.2971 2.86026 31.7797 3.30062 31.7797C4.18134 31.7797 7.20706 29.1962 8.48553 27.3366C9.82082 25.406 10.73 23.1348 11.0709 20.9629C11.2413 19.7847 11.1561 19.4156 10.6447 19.1459C10.2612 18.9472 10.0055 18.9756 9.66456 19.2595Z" fill="#2171AC"/>
<path d="M26.7252 24.7104C26.5264 24.8098 26.3559 25.0795 26.2565 25.4486C24.9496 30.5731 23.1171 34.2781 19.9351 38.267C19.2817 39.0903 18.7419 39.8285 18.7419 39.942C18.7419 40.0414 18.8839 40.2827 19.0402 40.4956C19.2817 40.8079 19.4379 40.8647 19.8499 40.8363C20.2903 40.7937 20.5033 40.6376 21.3414 39.6581C23.2023 37.5146 25.4752 33.7387 26.5406 31.0415C27.5917 28.3586 28.3162 25.7041 28.1173 25.1931C27.9043 24.5969 27.3503 24.4123 26.7252 24.7104Z" fill="#2171AC"/>
<path d="M33.5434 26.3571C33.4014 26.499 33.1741 27.0953 33.032 27.6773C32.3786 30.3886 31.3416 33.1425 29.9211 35.9531C29.0688 37.614 28.9409 37.9689 29.0546 38.2812C29.225 38.7496 29.8217 38.9909 30.3473 38.7922C30.7876 38.636 31.8246 36.8048 32.9326 34.1787C34.1685 31.2545 35.3049 27.3366 35.0776 26.7262C34.8361 26.1016 33.998 25.9028 33.5434 26.3571Z" fill="#2171AC"/>
<path d="M14.9487 26.4991C14.8493 26.5701 14.5652 27.0243 14.3237 27.5354C13.2015 29.8776 10.5451 33.1141 8.54217 34.6188C8.07339 34.9737 7.61883 35.3996 7.53359 35.5699C7.24949 36.1661 7.74667 36.8901 8.44273 36.8901C9.13878 36.8901 11.3832 34.9879 13.1305 32.9154C14.693 31.0558 16.4687 28.0322 16.4687 27.2514C16.4687 26.6269 15.5027 26.1442 14.9487 26.4991Z" fill="#2171AC"/>
<path d="M7.59065 30.7435C6.9088 31.3539 6.0991 32.0353 5.77238 32.2482C4.83484 32.8728 4.67858 33.0715 4.67858 33.5542C4.67858 34.0936 5.04791 34.4769 5.58771 34.4769C6.14172 34.4769 7.37757 33.6109 8.84071 32.2198C9.80666 31.2829 10.0766 30.9422 10.0766 30.6299C10.0766 30.2041 9.50835 29.6504 9.06799 29.6504C8.92594 29.6504 8.25829 30.1473 7.59065 30.7435Z" fill="#2171AC"/>
<path d="M27.436 33.0999C27.2655 33.2844 27.1234 33.4689 27.1234 33.5115C27.1234 33.7245 25.3904 36.7197 24.5523 37.9689C24.0125 38.7638 23.5721 39.5303 23.5721 39.6723C23.5721 40.2117 23.9699 40.5808 24.5665 40.5808C25.0779 40.5808 25.1773 40.5098 25.6603 39.8284C27.1092 37.8411 29.1122 34.2923 29.1122 33.7103C29.1122 33.6109 28.9843 33.3554 28.8139 33.1425C28.4445 32.674 27.8479 32.6598 27.436 33.0999Z" fill="#2171AC"/>
<path d="M19.2812 33.3696C19.1534 33.469 18.571 34.1929 17.9886 34.9737C17.4061 35.7544 16.3692 36.9752 15.7015 37.6708C14.9202 38.4941 14.4941 39.0619 14.4799 39.2749C14.4799 39.6723 15.0765 40.2969 15.4458 40.2969C16.355 40.2969 20.7302 35.215 20.7302 34.1646C20.7302 33.4122 19.8494 32.9296 19.2812 33.3696Z" fill="#2171AC"/>
</svg>
