<svg width="245" height="52" viewBox="0 0 245 52" fill="none" xmlns="http://www.w3.org/2000/svg">
<path d="M68.6943 35.1553V9.25H74.9805V40H69.335L68.6943 35.1553ZM55.2012 29.4297V29.0093C55.2012 27.3677 55.3813 25.8729 55.7417 24.5249C56.1154 23.1636 56.6559 21.9958 57.3633 21.0215C58.084 20.0339 58.9715 19.2731 60.0259 18.7393C61.0802 18.2054 62.2881 17.9385 63.6494 17.9385C64.904 17.9385 65.9984 18.2188 66.9326 18.7793C67.8669 19.3265 68.661 20.1006 69.3149 21.1016C69.9823 22.0892 70.5228 23.257 70.9365 24.605C71.3503 25.9396 71.6639 27.3877 71.8774 28.9492V29.6699C71.6772 31.1647 71.3636 32.5594 70.9365 33.854C70.5228 35.1486 69.9823 36.2897 69.3149 37.2773C68.661 38.2516 67.8602 39.019 66.9126 39.5796C65.9784 40.1268 64.8773 40.4004 63.6094 40.4004C62.248 40.4004 61.0402 40.1268 59.9858 39.5796C58.9448 39.0324 58.0706 38.265 57.3633 37.2773C56.6559 36.2897 56.1154 35.1286 55.7417 33.7939C55.3813 32.4593 55.2012 31.0046 55.2012 29.4297ZM61.4473 29.0093V29.4297C61.4473 30.2839 61.5073 31.078 61.6274 31.812C61.7609 32.5461 61.9744 33.1934 62.2681 33.7539C62.5617 34.3145 62.9487 34.7549 63.4292 35.0752C63.9097 35.3822 64.4969 35.5356 65.1909 35.5356C66.1252 35.5356 66.8926 35.3221 67.4932 34.895C68.0938 34.4546 68.5475 33.8473 68.8545 33.0732C69.1615 32.2992 69.3216 31.3983 69.335 30.3706V28.2686C69.335 27.4144 69.2482 26.647 69.0747 25.9663C68.9012 25.2856 68.641 24.7118 68.2939 24.2446C67.9603 23.7775 67.5399 23.4238 67.0327 23.1836C66.5256 22.93 65.925 22.8032 65.231 22.8032C64.5503 22.8032 63.9697 22.9634 63.4893 23.2837C63.0088 23.5907 62.6151 24.0244 62.3081 24.585C62.0145 25.1455 61.7943 25.8062 61.6475 26.5669C61.514 27.3143 61.4473 28.1284 61.4473 29.0093ZM89.3545 40.4004C87.6328 40.4004 86.0913 40.1268 84.73 39.5796C83.3687 39.0324 82.2142 38.2783 81.2666 37.3174C80.3324 36.3431 79.6183 35.222 79.1245 33.9541C78.6307 32.6862 78.3838 31.3315 78.3838 29.8901V29.1294C78.3838 27.5145 78.6107 26.0264 79.0645 24.665C79.5182 23.3037 80.1789 22.1226 81.0464 21.1216C81.9272 20.1073 83.0083 19.3265 84.2896 18.7793C85.5708 18.2188 87.0322 17.9385 88.6738 17.9385C90.2087 17.9385 91.5767 18.1921 92.7778 18.6992C93.979 19.193 94.9933 19.9071 95.8208 20.8413C96.6483 21.7622 97.2756 22.8766 97.7026 24.1846C98.1431 25.4792 98.3633 26.9339 98.3633 28.5488V31.1113H80.9062V27.0874H92.2373V26.6069C92.2373 25.8462 92.0972 25.1789 91.8169 24.605C91.55 24.0311 91.1496 23.5907 90.6157 23.2837C90.0952 22.9634 89.4346 22.8032 88.6338 22.8032C87.873 22.8032 87.2391 22.9634 86.7319 23.2837C86.2248 23.604 85.8177 24.0578 85.5107 24.645C85.2171 25.2189 85.0036 25.8929 84.8701 26.667C84.7367 27.4277 84.6699 28.2485 84.6699 29.1294V29.8901C84.6699 30.731 84.7834 31.4984 85.0103 32.1924C85.2371 32.8864 85.5708 33.4803 86.0112 33.9741C86.4517 34.4679 86.9855 34.855 87.6128 35.1353C88.2401 35.4155 88.9541 35.5557 89.7549 35.5557C90.7425 35.5557 91.6834 35.3688 92.5776 34.9951C93.4718 34.6081 94.2459 34.0075 94.8999 33.1934L97.8228 36.5366C97.3823 37.1772 96.7617 37.7979 95.9609 38.3984C95.1735 38.9857 94.2259 39.4661 93.1182 39.8398C92.0104 40.2135 90.7559 40.4004 89.3545 40.4004ZM111.616 40.4004C109.895 40.4004 108.353 40.1268 106.992 39.5796C105.63 39.0324 104.476 38.2783 103.528 37.3174C102.594 36.3431 101.88 35.222 101.386 33.9541C100.892 32.6862 100.646 31.3315 100.646 29.8901V29.1294C100.646 27.5145 100.872 26.0264 101.326 24.665C101.78 23.3037 102.441 22.1226 103.308 21.1216C104.189 20.1073 105.27 19.3265 106.551 18.7793C107.833 18.2188 109.294 17.9385 110.936 17.9385C112.47 17.9385 113.838 18.1921 115.04 18.6992C116.241 19.193 117.255 19.9071 118.083 20.8413C118.91 21.7622 119.537 22.8766 119.964 24.1846C120.405 25.4792 120.625 26.9339 120.625 28.5488V31.1113H103.168V27.0874H114.499V26.6069C114.499 25.8462 114.359 25.1789 114.079 24.605C113.812 24.0311 113.411 23.5907 112.877 23.2837C112.357 22.9634 111.696 22.8032 110.896 22.8032C110.135 22.8032 109.501 22.9634 108.994 23.2837C108.486 23.604 108.079 24.0578 107.772 24.645C107.479 25.2189 107.265 25.8929 107.132 26.667C106.998 27.4277 106.932 28.2485 106.932 29.1294V29.8901C106.932 30.731 107.045 31.4984 107.272 32.1924C107.499 32.8864 107.833 33.4803 108.273 33.9741C108.713 34.4679 109.247 34.855 109.875 35.1353C110.502 35.4155 111.216 35.5557 112.017 35.5557C113.004 35.5557 113.945 35.3688 114.839 34.9951C115.734 34.6081 116.508 34.0075 117.162 33.1934L120.084 36.5366C119.644 37.1772 119.023 37.7979 118.223 38.3984C117.435 38.9857 116.488 39.4661 115.38 39.8398C114.272 40.2135 113.018 40.4004 111.616 40.4004ZM129.934 22.5029V48.3281H123.688V18.3389H129.514L129.934 22.5029ZM143.447 28.9292V29.3496C143.447 30.9245 143.267 32.3859 142.907 33.7339C142.546 35.0685 142.006 36.2363 141.285 37.2373C140.578 38.2383 139.704 39.019 138.663 39.5796C137.622 40.1268 136.414 40.4004 135.039 40.4004C133.731 40.4004 132.597 40.1268 131.636 39.5796C130.688 39.019 129.887 38.245 129.233 37.2573C128.593 36.2563 128.072 35.1152 127.672 33.834C127.285 32.5394 126.985 31.158 126.771 29.6899V28.8691C126.985 27.3076 127.292 25.8595 127.692 24.5249C128.092 23.1903 128.613 22.0358 129.253 21.0615C129.894 20.0739 130.688 19.3065 131.636 18.7593C132.583 18.2121 133.711 17.9385 135.019 17.9385C136.38 17.9385 137.588 18.1987 138.643 18.7192C139.697 19.2397 140.578 19.9871 141.285 20.9614C142.006 21.9224 142.546 23.0768 142.907 24.4248C143.267 25.7728 143.447 27.2743 143.447 28.9292ZM137.181 29.3496V28.9292C137.181 28.0483 137.114 27.2409 136.981 26.5068C136.847 25.7594 136.634 25.1121 136.34 24.5649C136.047 24.0044 135.66 23.5706 135.179 23.2637C134.699 22.9567 134.111 22.8032 133.417 22.8032C132.67 22.8032 132.036 22.9233 131.516 23.1636C130.995 23.4038 130.575 23.7575 130.254 24.2246C129.934 24.6784 129.701 25.2389 129.554 25.9062C129.42 26.5736 129.347 27.3343 129.333 28.1885V30.3906C129.347 31.3916 129.487 32.2858 129.754 33.0732C130.034 33.8473 130.468 34.4546 131.055 34.895C131.656 35.3221 132.457 35.5356 133.458 35.5356C134.165 35.5356 134.752 35.3822 135.219 35.0752C135.7 34.7549 136.08 34.3078 136.36 33.7339C136.654 33.16 136.861 32.4993 136.981 31.752C137.114 31.0046 137.181 30.2038 137.181 29.3496Z" fill="#4B4B4B"/>
<path d="M153.357 9.25V40H147.091V9.25H153.357ZM168.071 40.4004C166.35 40.4004 164.808 40.1268 163.447 39.5796C162.085 39.0324 160.931 38.2783 159.983 37.3174C159.049 36.3431 158.335 35.222 157.841 33.9541C157.347 32.6862 157.101 31.3315 157.101 29.8901V29.1294C157.101 27.5145 157.327 26.0264 157.781 24.665C158.235 23.3037 158.896 22.1226 159.763 21.1216C160.644 20.1073 161.725 19.3265 163.006 18.7793C164.288 18.2188 165.749 17.9385 167.391 17.9385C168.925 17.9385 170.293 18.1921 171.495 18.6992C172.696 19.193 173.71 19.9071 174.538 20.8413C175.365 21.7622 175.992 22.8766 176.419 24.1846C176.86 25.4792 177.08 26.9339 177.08 28.5488V31.1113H159.623V27.0874H170.954V26.6069C170.954 25.8462 170.814 25.1789 170.534 24.605C170.267 24.0311 169.866 23.5907 169.333 23.2837C168.812 22.9634 168.151 22.8032 167.351 22.8032C166.59 22.8032 165.956 22.9634 165.449 23.2837C164.942 23.604 164.535 24.0578 164.228 24.645C163.934 25.2189 163.72 25.8929 163.587 26.667C163.453 27.4277 163.387 28.2485 163.387 29.1294V29.8901C163.387 30.731 163.5 31.4984 163.727 32.1924C163.954 32.8864 164.288 33.4803 164.728 33.9741C165.168 34.4679 165.702 34.855 166.33 35.1353C166.957 35.4155 167.671 35.5557 168.472 35.5557C169.459 35.5557 170.4 35.3688 171.294 34.9951C172.189 34.6081 172.963 34.0075 173.617 33.1934L176.54 36.5366C176.099 37.1772 175.479 37.7979 174.678 38.3984C173.89 38.9857 172.943 39.4661 171.835 39.8398C170.727 40.2135 169.473 40.4004 168.071 40.4004ZM191.594 34.835V25.5459C191.594 24.8919 191.494 24.3314 191.294 23.8643C191.094 23.3971 190.78 23.0301 190.353 22.7632C189.926 22.4963 189.372 22.3628 188.691 22.3628C188.118 22.3628 187.617 22.4629 187.19 22.6631C186.776 22.8633 186.456 23.1502 186.229 23.5239C186.015 23.8976 185.909 24.3581 185.909 24.9053H179.663C179.663 23.931 179.883 23.0234 180.323 22.1826C180.764 21.3418 181.391 20.6011 182.205 19.9604C183.033 19.3198 184.02 18.826 185.168 18.479C186.316 18.1187 187.604 17.9385 189.032 17.9385C190.727 17.9385 192.235 18.2254 193.556 18.7993C194.891 19.3599 195.945 20.2074 196.719 21.3418C197.493 22.4629 197.88 23.8776 197.88 25.5859V34.6548C197.88 35.9627 197.954 36.9904 198.101 37.7378C198.261 38.4718 198.488 39.1125 198.781 39.6597V40H192.475C192.181 39.3727 191.961 38.5986 191.814 37.6777C191.668 36.7435 191.594 35.7959 191.594 34.835ZM192.375 26.7871L192.415 30.2305H189.312C188.618 30.2305 188.017 30.3172 187.51 30.4907C187.016 30.6642 186.616 30.9045 186.309 31.2114C186.002 31.505 185.775 31.8521 185.628 32.2524C185.495 32.6395 185.428 33.0666 185.428 33.5337C185.428 33.9741 185.535 34.3745 185.749 34.7349C185.962 35.0819 186.256 35.3555 186.629 35.5557C187.003 35.7559 187.437 35.856 187.931 35.856C188.745 35.856 189.439 35.6958 190.013 35.3755C190.6 35.0552 191.054 34.6681 191.374 34.2144C191.694 33.7472 191.854 33.3135 191.854 32.9131L193.356 35.5156C193.116 36.0495 192.822 36.6034 192.475 37.1772C192.128 37.7378 191.688 38.265 191.154 38.7588C190.62 39.2393 189.973 39.633 189.212 39.9399C188.465 40.2469 187.564 40.4004 186.509 40.4004C185.148 40.4004 183.913 40.1268 182.806 39.5796C181.698 39.019 180.81 38.2516 180.143 37.2773C179.489 36.3031 179.162 35.182 179.162 33.9141C179.162 32.7796 179.369 31.772 179.783 30.8911C180.196 30.0103 180.817 29.2629 181.645 28.6489C182.485 28.035 183.54 27.5745 184.808 27.2676C186.076 26.9473 187.557 26.7871 189.252 26.7871H192.375ZM214.597 35.1553V9.25H220.883V40H215.237L214.597 35.1553ZM201.104 29.4297V29.0093C201.104 27.3677 201.284 25.8729 201.644 24.5249C202.018 23.1636 202.558 21.9958 203.266 21.0215C203.986 20.0339 204.874 19.2731 205.928 18.7393C206.983 18.2054 208.19 17.9385 209.552 17.9385C210.806 17.9385 211.901 18.2188 212.835 18.7793C213.769 19.3265 214.563 20.1006 215.217 21.1016C215.885 22.0892 216.425 23.257 216.839 24.605C217.253 25.9396 217.566 27.3877 217.78 28.9492V29.6699C217.58 31.1647 217.266 32.5594 216.839 33.854C216.425 35.1486 215.885 36.2897 215.217 37.2773C214.563 38.2516 213.763 39.019 212.815 39.5796C211.881 40.1268 210.78 40.4004 209.512 40.4004C208.15 40.4004 206.943 40.1268 205.888 39.5796C204.847 39.0324 203.973 38.265 203.266 37.2773C202.558 36.2897 202.018 35.1286 201.644 33.7939C201.284 32.4593 201.104 31.0046 201.104 29.4297ZM207.35 29.0093V29.4297C207.35 30.2839 207.41 31.078 207.53 31.812C207.663 32.5461 207.877 33.1934 208.17 33.7539C208.464 34.3145 208.851 34.7549 209.332 35.0752C209.812 35.3822 210.399 35.5356 211.093 35.5356C212.028 35.5356 212.795 35.3221 213.396 34.895C213.996 34.4546 214.45 33.8473 214.757 33.0732C215.064 32.2992 215.224 31.3983 215.237 30.3706V28.2686C215.237 27.4144 215.151 26.647 214.977 25.9663C214.804 25.2856 214.543 24.7118 214.196 24.2446C213.863 23.7775 213.442 23.4238 212.935 23.1836C212.428 22.93 211.827 22.8032 211.133 22.8032C210.453 22.8032 209.872 22.9634 209.392 23.2837C208.911 23.5907 208.517 24.0244 208.21 24.585C207.917 25.1455 207.697 25.8062 207.55 26.5669C207.416 27.3143 207.35 28.1284 207.35 29.0093ZM236.578 33.9741C236.578 33.5737 236.451 33.2201 236.198 32.9131C235.958 32.6061 235.517 32.3258 234.876 32.0723C234.249 31.8187 233.362 31.5651 232.214 31.3115C231.133 31.0846 230.125 30.791 229.191 30.4307C228.257 30.057 227.443 29.6099 226.749 29.0894C226.055 28.5555 225.514 27.9282 225.127 27.2075C224.74 26.4735 224.546 25.6393 224.546 24.7051C224.546 23.7975 224.74 22.9367 225.127 22.1226C225.527 21.3084 226.101 20.5877 226.849 19.9604C227.609 19.3332 228.53 18.8394 229.611 18.479C230.706 18.1187 231.947 17.9385 233.335 17.9385C235.243 17.9385 236.892 18.2388 238.28 18.8394C239.668 19.4266 240.736 20.2541 241.483 21.3218C242.23 22.3761 242.604 23.584 242.604 24.9453H236.358C236.358 24.3848 236.251 23.8976 236.038 23.4839C235.824 23.0701 235.497 22.7498 235.057 22.5229C234.616 22.2827 234.036 22.1626 233.315 22.1626C232.754 22.1626 232.261 22.2627 231.833 22.4629C231.42 22.6497 231.093 22.91 230.853 23.2437C230.626 23.5773 230.512 23.9644 230.512 24.4048C230.512 24.7118 230.579 24.992 230.712 25.2456C230.859 25.4858 231.079 25.7127 231.373 25.9263C231.68 26.1265 232.074 26.3066 232.554 26.4668C233.048 26.627 233.649 26.7804 234.356 26.9272C235.864 27.2075 237.239 27.6012 238.48 28.1084C239.735 28.6156 240.736 29.3162 241.483 30.2104C242.244 31.1047 242.624 32.2858 242.624 33.7539C242.624 34.7148 242.404 35.5957 241.963 36.3965C241.536 37.1973 240.916 37.8979 240.102 38.4985C239.287 39.0991 238.313 39.5662 237.179 39.8999C236.044 40.2336 234.763 40.4004 233.335 40.4004C231.293 40.4004 229.565 40.0334 228.15 39.2993C226.735 38.5653 225.667 37.6444 224.947 36.5366C224.239 35.4155 223.886 34.2677 223.886 33.0933H229.751C229.778 33.814 229.958 34.4012 230.292 34.855C230.639 35.3088 231.086 35.6424 231.633 35.856C232.181 36.0562 232.794 36.1562 233.475 36.1562C234.156 36.1562 234.723 36.0628 235.177 35.876C235.631 35.6891 235.978 35.4355 236.218 35.1152C236.458 34.7816 236.578 34.4012 236.578 33.9741Z" fill="#2171AC"/>
<path d="M22.5499 0.173893C19.0542 0.673277 14.8094 2.5103 11.8666 4.77536C10.636 5.73846 8.37095 8.03919 7.39002 9.34116C6.42692 10.6253 6.33775 11.3387 7.06899 11.9094C7.87157 12.5515 8.04992 12.4445 10.3863 9.62652C14.3636 4.82886 21.3014 1.9039 27.4902 2.38545C29.3986 2.54597 29.9515 2.29627 29.9515 1.35101C29.9515 0.619771 29.8088 0.405749 29.1846 0.173893C28.596 -0.0579642 24.1015 -0.0579642 22.5499 0.173893Z" fill="#2171AC"/>
<path d="M32.4841 1.10127C31.6102 2.02869 32.0025 2.56375 34.4638 3.77654C35.5874 4.32943 37.1391 5.25686 37.9238 5.84541C41.7762 8.75254 44.6833 13.14 45.7356 17.6344C46.1101 19.2039 46.3955 19.5963 47.1624 19.5963C47.7331 19.5963 48.1612 19.2574 48.3752 18.6689C48.4287 18.5084 48.286 17.6166 48.0363 16.707C46.235 9.96533 41.6335 4.43644 35.3912 1.47581C33.5185 0.584048 33.0191 0.512708 32.4841 1.10127Z" fill="#2171AC"/>
<path d="M23.442 4.43649C21.8725 4.65051 19.7145 5.18556 18.573 5.68495C17.5207 6.14866 17.1105 6.80856 17.4851 7.50413C17.931 8.34238 18.3055 8.37805 20.4457 7.66465C29.4346 4.65051 38.7802 9.57301 41.6695 18.8294C42.1511 20.3633 42.1689 20.506 42.1689 24.8221C42.1689 28.9955 42.1867 29.263 42.5078 29.5127C42.9893 29.8516 43.5601 29.8337 44.0238 29.4414C44.9155 28.728 45.0047 21.8793 44.1664 18.6689C42.3473 11.6954 36.7649 6.30918 29.7913 4.79319C27.9186 4.38298 25.1185 4.22246 23.442 4.43649Z" fill="#2171AC"/>
<path d="M12.7234 9.98317C10.4761 12.1769 8.6748 15.2445 7.83655 18.3479C7.39067 19.9708 7.31933 20.4346 7.12314 23.2525C7.03397 24.6258 6.81994 26.1953 6.65943 26.7304C5.92819 29.1738 4.30519 31.5102 2.21848 33.0975C0.738162 34.2211 0.470634 34.7205 1.00569 35.4339C1.75476 36.4505 2.7892 36.0403 5.12561 33.7931C6.48108 32.4911 7.49768 31.0643 8.28243 29.3343C9.15635 27.4081 9.44171 26.124 9.62006 23.2168C9.83408 19.8638 10.0838 18.7759 11.2074 16.3146C11.8851 14.7987 12.8839 13.3718 14.4355 11.6775C15.5413 10.4826 15.7018 10.215 15.5948 9.80482C15.4522 9.21626 15.1846 8.94873 14.5782 8.80605C14.1324 8.69904 13.9183 8.82388 12.7234 9.98317Z" fill="#2171AC"/>
<path d="M23.2629 9.16272C20.5877 9.75128 18.3226 10.9462 16.3429 12.8011C14.7912 14.2636 13.6676 15.8331 12.9007 17.5987C11.9911 19.6855 12.1695 20.8447 13.4001 20.8447C14.06 20.8447 14.5415 20.3454 14.8626 19.3109C15.4511 17.4739 17.0206 15.2802 18.6971 13.9425C20.7838 12.3017 23.3699 11.3921 26.1344 11.3386C27.472 11.3029 27.8466 11.2316 28.1498 10.9641C28.6848 10.4825 28.6313 9.71561 28.0606 9.26973C27.6504 8.9487 27.3472 8.89519 25.956 8.91303C25.0643 8.91303 23.8515 9.03788 23.2629 9.16272Z" fill="#2171AC"/>
<path d="M31.8249 10.9463C31.0223 11.731 31.2363 12.2126 32.8237 13.2649C36.2837 15.5656 38.3347 19.5428 38.3347 23.9124C38.3347 27.1228 37.4786 32.723 36.5512 35.7015C36.355 36.3079 36.1945 37.0213 36.1945 37.2888C36.1945 38.3232 37.4251 38.8761 38.1385 38.1627C38.6736 37.6277 39.6545 34.0428 40.2074 30.5828C40.6176 27.9967 40.8316 23.7519 40.6354 21.8436C40.2074 17.5631 37.871 13.7107 34.2326 11.2852C32.9128 10.3934 32.4313 10.3221 31.8249 10.9463Z" fill="#2171AC"/>
<path d="M25.047 13.7107C24.2979 14.549 24.8865 15.6726 26.0993 15.6726C27.0624 15.6726 28.8994 16.1185 29.7555 16.5465C30.8612 17.1172 32.3416 18.5975 32.9301 19.7212C33.7327 21.255 33.9111 22.2359 33.8397 24.8042C33.804 26.8017 33.8219 27.0871 34.1251 27.4259C34.5531 27.8897 35.3735 27.9075 35.8194 27.4616C36.5328 26.7482 36.5328 22.5391 35.8373 20.2919C34.6423 16.3682 30.6294 13.354 26.6522 13.354C25.5999 13.354 25.3145 13.4254 25.047 13.7107Z" fill="#2171AC"/>
<path d="M5.28561 14.0318C4.55437 14.8343 3.78746 18.2409 3.62694 21.2907C3.46643 24.7685 2.91354 26.1775 1.04085 28.0145C-0.0827676 29.1025 -0.225449 29.5483 0.273935 30.2617C0.470122 30.5471 0.719814 30.6541 1.16569 30.6541C1.68291 30.6541 1.98611 30.4758 2.86003 29.6375C5.01808 27.5865 5.78499 25.6959 6.05252 21.8614C6.23087 19.204 6.39139 18.1874 6.87294 16.5644C7.37232 14.9057 7.37232 14.4955 6.96211 14.0853C6.4984 13.6216 5.67798 13.6037 5.28561 14.0318Z" fill="#2171AC"/>
<path d="M18.9834 16.4217C16.9324 18.5441 16.3082 20.2027 16.0406 24.1443C15.8266 27.6578 15.3094 29.6732 13.8826 32.7765C13.2584 34.1141 13.3119 34.6314 14.0788 35.0237C14.917 35.4518 15.4521 35.0951 16.1833 33.6147C17.5566 30.886 18.5376 26.7839 18.5376 23.8946C18.5376 21.3798 19.4115 19.2575 21.1058 17.6701C22.0511 16.7784 22.1759 16.1541 21.516 15.5299C20.8026 14.8522 20.3567 15.0127 18.9834 16.4217Z" fill="#2171AC"/>
<path d="M25.2255 17.8128C24.1019 18.0446 23.2279 18.4727 22.461 19.1683C21.0699 20.4346 20.4992 21.9149 20.4992 24.3226C20.4992 25.1074 20.3743 26.4628 20.2316 27.3546C19.8928 29.4235 19.8928 29.5126 20.3208 29.9407C20.7667 30.3866 21.6049 30.4044 22.0152 29.9407C22.461 29.4413 22.7821 27.6935 22.9247 25.036C23.0139 23.2525 23.1209 22.5391 23.3885 21.9505C24.4764 19.6141 27.9007 19.632 29.0779 21.9505C29.4346 22.664 29.4524 22.8958 29.3632 25.1252C29.2027 28.9954 28.3823 32.6695 26.8485 36.4862C26.2956 37.8595 26.2242 38.1805 26.4026 38.5551C26.8306 39.4825 28.0256 39.536 28.5785 38.6442C29.0065 37.9843 30.255 34.453 30.7365 32.5803C31.4143 29.9407 31.7888 27.0692 31.8066 24.4118C31.8245 22.1289 31.8066 21.9505 31.3251 20.9874C30.2015 18.7045 27.5619 17.3312 25.2255 17.8128Z" fill="#2171AC"/>
<path d="M46.8235 22.3072C46.6809 22.5569 46.5203 23.4843 46.449 24.6793C46.1636 29.6553 45.2719 34.0963 43.5954 39.0188C43.2565 40.0532 42.9711 41.0698 42.9711 41.266C42.9711 42.2469 44.4515 42.6036 45.0935 41.7832C45.5037 41.266 46.6809 37.7881 47.3408 35.1664C48.1612 31.849 48.6249 28.8171 48.9459 24.4118C49.0529 23.0206 49.0173 22.8423 48.6784 22.3964C48.179 21.7722 47.1981 21.7187 46.8235 22.3072Z" fill="#2171AC"/>
<path d="M25.315 23.8767C25.0653 24.1264 24.9583 24.4653 24.9583 25.036C24.9583 26.1418 24.4946 29.1916 24.0666 30.8681C22.5863 36.611 19.3046 41.9259 14.6853 45.9923C14.1859 46.4382 13.6865 46.9733 13.5795 47.1873C13.1336 48.0077 14.0432 49.0243 15.0242 48.7746C15.256 48.7211 16.2369 47.9364 17.1822 47.0446C23.0856 41.4622 26.4921 34.5778 27.2769 26.5877C27.4731 24.5902 27.4017 24.0194 26.8489 23.6627C26.4743 23.413 25.6717 23.52 25.315 23.8767Z" fill="#2171AC"/>
<path d="M12.1342 24.1978C11.831 24.4296 11.6526 24.929 11.4029 26.1953C10.8679 28.9241 10.1366 30.7254 8.67417 32.8835C7.78241 34.1855 5.90972 36.076 4.71476 36.8786C3.34146 37.806 3.02043 38.1627 3.02043 38.7156C3.02043 39.322 3.59115 39.9284 4.14404 39.9284C5.24982 39.9284 9.0487 36.6824 10.6539 34.346C12.3304 31.9204 13.4718 29.0668 13.8999 26.338C14.1139 24.8577 14.0069 24.394 13.3648 24.0551C12.8833 23.8054 12.5622 23.8411 12.1342 24.1978Z" fill="#2171AC"/>
<path d="M33.5544 31.0464C33.3047 31.1713 33.0907 31.5102 32.9659 31.9739C31.325 38.4124 29.0243 43.0673 25.0292 48.079C24.2088 49.1134 23.5311 50.0409 23.5311 50.1836C23.5311 50.3084 23.7094 50.6116 23.9056 50.8791C24.2088 51.2715 24.405 51.3428 24.9222 51.3072C25.4751 51.2537 25.7426 51.0575 26.7949 49.8269C29.1313 47.1337 31.9849 42.3896 33.3226 39.0009C34.6424 35.6301 35.552 32.2949 35.3023 31.6528C35.0347 30.9038 34.3392 30.6719 33.5544 31.0464Z" fill="#2171AC"/>
<path d="M42.1149 33.1153C41.9366 33.2937 41.6512 34.0428 41.4729 34.774C40.6524 38.1805 39.3505 41.6405 37.567 45.1719C36.4969 47.2586 36.3363 47.7045 36.479 48.0968C36.693 48.6854 37.4421 48.9886 38.102 48.7389C38.6549 48.5427 39.9569 46.242 41.348 42.9425C42.8997 39.2685 44.3265 34.3459 44.0411 33.579C43.7379 32.7943 42.6856 32.5446 42.1149 33.1153Z" fill="#2171AC"/>
<path d="M18.7686 33.2937C18.6438 33.3829 18.2871 33.9536 17.9839 34.5957C16.5749 37.5385 13.2397 41.6049 10.725 43.4954C10.1364 43.9413 9.5657 44.4764 9.45868 44.6904C9.10198 45.4395 9.72621 46.3491 10.6001 46.3491C11.4741 46.3491 14.292 43.9592 16.4857 41.3552C18.4476 39.0188 20.677 35.2199 20.677 34.239C20.677 33.4543 19.4642 32.8479 18.7686 33.2937Z" fill="#2171AC"/>
<path d="M9.53032 38.6264C8.67423 39.3933 7.65763 40.2494 7.24742 40.517C6.0703 41.3017 5.87411 41.5514 5.87411 42.1578C5.87411 42.8355 6.33783 43.3171 7.01556 43.3171C7.71113 43.3171 9.26279 42.2291 11.0998 40.4813C12.3126 39.3042 12.6515 38.8761 12.6515 38.4838C12.6515 37.9487 11.9381 37.2531 11.3852 37.2531C11.2068 37.2531 10.3686 37.8774 9.53032 38.6264Z" fill="#2171AC"/>
<path d="M34.4468 41.587C34.2328 41.8189 34.0544 42.0507 34.0544 42.1042C34.0544 42.3718 31.8785 46.135 30.8262 47.7045C30.1485 48.7032 29.5956 49.6663 29.5956 49.8447C29.5956 50.5224 30.095 50.9861 30.8441 50.9861C31.4861 50.9861 31.611 50.897 32.2174 50.0409C34.0366 47.544 36.5513 43.0852 36.5513 42.3539C36.5513 42.2291 36.3908 41.908 36.1768 41.6405C35.7131 41.052 34.964 41.0341 34.4468 41.587Z" fill="#2171AC"/>
<path d="M24.2082 41.9259C24.0477 42.0508 23.3165 42.9604 22.5852 43.9413C21.854 44.9222 20.552 46.4561 19.7138 47.33C18.7329 48.3644 18.1978 49.0778 18.18 49.3453C18.18 49.8447 18.929 50.6295 19.3927 50.6295C20.5342 50.6295 26.0274 44.2445 26.0274 42.9247C26.0274 41.9794 24.9216 41.373 24.2082 41.9259Z" fill="#2171AC"/>
</svg>
