<svg xmlns="http://www.w3.org/2000/svg" width="60" height="60" fill="none"><path fill="#2171AC" fill-rule="evenodd" d="M30 60c16.569 0 30-13.431 30-30C60 13.431 46.569 0 30 0 13.431 0 0 13.431 0 30c0 16.569 13.431 30 30 30Zm9.143-38.857A9.142 9.142 0 0 1 30 30.286a9.142 9.142 0 0 1-9.143-9.143A9.142 9.142 0 0 1 30 12a9.142 9.142 0 0 1 9.143 9.143ZM35.207 32.57H36.4c5.3 0 9.6 4.3 9.6 9.6v2.972a3.43 3.43 0 0 1-3.429 3.428H17.43A3.43 3.43 0 0 1 14 45.143V42.17c0-5.3 4.3-9.6 9.6-9.6h1.193A12.472 12.472 0 0 0 30 33.714c1.857 0 3.621-.414 5.207-1.143Z" clip-rule="evenodd"/></svg>