<svg xmlns="http://www.w3.org/2000/svg" viewBox="0 0 48 48" fill="#fff"><path d="M41.36 41.83a2.015 2.015 0 0 1-1.94 2.45 2.037 2.037 0 0 1-.89-.21l-3.54-1.73a15.371 15.371 0 0 1-18.3-6.28A18 18 0 0 0 37 18.61a16.643 16.643 0 0 0-.35-3.41 14.771 14.771 0 0 1 8.31 12.63 14.531 14.531 0 0 1-4.3 10.9z"/><path d="M19 3A15.825 15.825 0 0 0 3 18.605 15.247 15.247 0 0 0 7.994 29.9l-.644 3.438a2.005 2.005 0 0 0 1.963 2.371 2.011 2.011 0 0 0 .951-.241l3.788-2.035a16.28 16.28 0 0 0 4.948.778 15.825 15.825 0 0 0 16-15.606A15.825 15.825 0 0 0 19 3zm-6 18a2 2 0 1 1 2-2 2 2 0 0 1-2 2zm6 0a2 2 0 1 1 2-2 2 2 0 0 1-2 2zm6 0a2 2 0 1 1 2-2 2 2 0 0 1-2 2z"/></svg>