<svg width="80" height="81" viewBox="0 0 80 81" fill="#fff" xmlns="http://www.w3.org/2000/svg">
<path d="M41.4302 80.1642C47.5478 79.295 52.9108 72.91 56.2855 63.4806C51.407 62.388 46.4288 61.8016 41.4302 61.7318V80.1642Z" fill="#fff"/>
<path d="M51.2039 78.6646C51.5655 78.5599 51.9257 78.4545 52.2832 78.3386C52.5848 78.2415 52.8821 78.1368 53.1795 78.0328C53.5314 77.9113 53.8818 77.7864 54.2309 77.6537C54.5283 77.5406 54.8229 77.4206 55.1182 77.3005C55.4589 77.1574 55.7989 77.015 56.1354 76.8718C56.4293 76.7427 56.7211 76.6073 57.0129 76.4711C57.3431 76.3154 57.6719 76.157 57.998 75.9922C58.2842 75.8463 58.5697 75.6976 58.8559 75.5447C59.1764 75.373 59.4947 75.1978 59.811 75.0176C60.0972 74.8557 60.3729 74.693 60.6515 74.5255C60.9615 74.3349 61.27 74.1443 61.5765 73.9537C61.8509 73.7792 62.1245 73.6019 62.3947 73.419C62.6963 73.2158 62.9937 73.0043 63.2897 72.7927C63.5557 72.6022 63.8202 72.4123 64.0799 72.221C64.3662 72.0004 64.6594 71.7721 64.9463 71.5431C65.2011 71.34 65.4552 71.1382 65.7059 70.9295C65.9914 70.6921 66.265 70.4464 66.5422 70.2006C66.7851 69.9849 67.0295 69.7713 67.2668 69.55C67.5398 69.2952 67.8058 69.0313 68.0718 68.7695C68.3021 68.5419 68.5353 68.3178 68.7608 68.0846C68.8027 68.0414 68.8425 67.9946 68.8858 67.9499C65.7673 66.3393 62.4827 65.0751 59.0891 64.1801C57.3243 69.8083 54.1834 74.9087 49.9515 79.0178C50.0673 78.9878 50.1832 78.9634 50.2991 78.9334C50.6049 78.8475 50.9051 78.7533 51.2039 78.6646Z" fill="#fff"/>
<path d="M80.0005 41.6742H62.8575C62.7926 48.3677 61.8215 55.0215 59.9708 61.4546C63.7448 62.4627 67.3869 63.912 70.8217 65.7725C76.461 58.9756 79.6891 50.5012 80.0005 41.6742Z" fill="#fff"/>
<path d="M41.4302 38.8147H59.9981C59.9254 32.3578 58.9781 25.9407 57.1832 19.7379C52.013 20.9171 46.7324 21.5468 41.4302 21.6166V38.8147Z" fill="#fff"/>
<path d="M41.4302 0.324707V18.7571C46.4288 18.6866 51.407 18.1009 56.2855 17.0083C52.9108 7.57884 47.5478 1.19386 41.4302 0.324707Z" fill="#fff"/>
<path d="M41.4302 58.8723C46.7324 58.9428 52.013 59.5725 57.1832 60.7516C58.9781 54.5488 59.9254 48.1311 59.9981 41.6742H41.4302V58.8723Z" fill="#fff"/>
<path d="M70.8217 14.7164C67.3869 16.5769 63.7448 18.0262 59.9708 19.0342C61.8215 25.4674 62.7926 32.1211 62.8575 38.8147H80.0005C79.6884 29.9884 76.4603 21.514 70.8217 14.7164Z" fill="#fff"/>
<path d="M68.89 12.5473C68.8481 12.5048 68.8083 12.4587 68.7671 12.4147C68.5409 12.1815 68.3063 11.9567 68.076 11.7298C67.8107 11.4681 67.5461 11.2035 67.2724 10.9493C67.0358 10.7287 66.7907 10.52 66.5478 10.3001C66.2706 10.0544 65.9935 9.80653 65.7086 9.56917C65.4615 9.36044 65.2081 9.16077 64.9568 8.96041C64.6706 8.72864 64.3773 8.49826 64.0827 8.27696C63.8244 8.08218 63.5626 7.89369 63.2994 7.7052C63.0007 7.49018 62.7005 7.27586 62.3961 7.07131C62.1287 6.8912 61.8571 6.71527 61.5856 6.54284C61.2763 6.34387 60.9677 6.1491 60.6529 5.96061C60.3771 5.79515 60.0986 5.63179 59.8193 5.47332C59.4996 5.29041 59.1792 5.11309 58.8559 4.93996C58.5697 4.79684 58.2842 4.64116 57.9979 4.49805C57.6691 4.3319 57.3375 4.17203 56.9975 4.01495C56.7113 3.87882 56.4209 3.74618 56.1263 3.61703C55.7877 3.46693 55.4456 3.3315 55.1042 3.18838C54.8096 3.06831 54.5164 2.94963 54.219 2.83653C53.8721 2.70389 53.5202 2.57962 53.1684 2.45815C52.871 2.35344 52.5736 2.24942 52.272 2.15168C51.9146 2.03579 51.5571 1.93038 51.1899 1.82426C50.8925 1.737 50.5937 1.64834 50.2928 1.56875C50.1776 1.53734 50.0604 1.5129 49.9445 1.48288C54.1765 5.592 57.3166 10.6917 59.0821 16.3207C62.4792 15.4257 65.7687 14.1607 68.89 12.5473Z" fill="#fff"/>
<path d="M0.000488281 38.8147H17.1434C17.2084 32.1211 18.1795 25.4674 20.0295 19.0342C16.2561 18.0269 12.6141 16.5776 9.17933 14.7164C3.53994 21.5133 0.311848 29.9884 0.000488281 38.8147Z" fill="#fff"/>
<path d="M38.5708 80.1642V61.7318C33.5722 61.8023 28.594 62.388 23.7155 63.4806C27.0895 72.91 32.4532 79.295 38.5708 80.1642Z" fill="#fff"/>
<path d="M38.5708 41.6742H20.0029C20.0755 48.1311 21.0222 54.5488 22.8177 60.7516C27.988 59.5718 33.2679 58.9421 38.5708 58.8723V41.6742Z" fill="#fff"/>
<path d="M38.5708 0.324707C32.4532 1.19386 27.0895 7.57884 23.7155 17.0083C28.594 18.1016 33.5722 18.6873 38.5708 18.7571V0.324707Z" fill="#fff"/>
<path d="M38.5708 21.6166C33.2686 21.5468 27.988 20.9171 22.8177 19.7379C21.0222 25.9407 20.0755 32.3578 20.0029 38.8147H38.5708V21.6166Z" fill="#fff"/>
<path d="M30.0453 1.48149C29.9295 1.51151 29.8136 1.53594 29.6977 1.56596C29.3947 1.64694 29.0959 1.737 28.7943 1.82426C28.4355 1.92898 28.0794 2.0344 27.7192 2.14889C27.4155 2.24732 27.1167 2.35204 26.818 2.45606C26.4682 2.57962 26.1177 2.70249 25.7715 2.83374C25.4727 2.94823 25.1781 3.06691 24.8821 3.18838C24.5421 3.3315 24.2014 3.47461 23.8656 3.61703C23.571 3.74618 23.2799 3.88161 22.9881 4.01775C22.6579 4.17343 22.3291 4.3319 22.003 4.49665C21.7168 4.64256 21.4306 4.79196 21.1451 4.94415C20.8246 5.11588 20.507 5.29181 20.1914 5.47192C19.9052 5.63179 19.6239 5.79585 19.3481 5.9634C19.0374 6.15049 18.7303 6.34387 18.4245 6.53516C18.1494 6.71108 17.8765 6.8884 17.6063 7.07131C17.3047 7.27446 17.0073 7.48599 16.7113 7.69752C16.4453 7.88811 16.1807 8.07799 15.9203 8.26998C15.6278 8.48988 15.3486 8.71886 15.054 8.94715C14.7999 9.1503 14.5437 9.35206 14.2951 9.56219C14.0089 9.79815 13.7373 10.0425 13.4616 10.2868C13.2172 10.5046 12.9708 10.7162 12.732 10.9417C12.4605 11.1951 12.1959 11.4583 11.9306 11.7194C11.7002 11.947 11.4657 12.1718 11.2395 12.4056C11.1983 12.4489 11.1585 12.4964 11.1152 12.5404C14.233 14.1516 17.5183 15.4159 20.9119 16.3109C22.6767 10.6855 25.8155 5.58851 30.0453 1.48149Z" fill="#fff"/>
<path d="M11.9243 68.759C12.1903 69.0208 12.4549 69.2854 12.7279 69.5402C12.9652 69.7601 13.2096 69.9689 13.4532 70.1888C13.7304 70.4352 14.0075 70.6823 14.2923 70.9197C14.5395 71.127 14.7915 71.3274 15.0442 71.5285C15.3304 71.7602 15.616 71.9906 15.919 72.2133C16.1766 72.4067 16.4383 72.5938 16.7001 72.7858C16.9989 73.0001 17.3005 73.2144 17.6049 73.4203C17.8723 73.6005 18.1438 73.7764 18.4154 73.9495C18.7247 74.1478 19.0333 74.3426 19.3481 74.5311C19.6239 74.6972 19.9024 74.8599 20.1817 75.019C20.5014 75.2019 20.8218 75.3793 21.1451 75.5517C21.4306 75.6948 21.7168 75.8505 22.003 75.9936C22.3319 76.1598 22.6635 76.3196 23.0034 76.4774C23.2897 76.6121 23.5801 76.7448 23.8747 76.8746C24.2133 77.0247 24.5547 77.1602 24.8967 77.3033C25.1913 77.4233 25.4845 77.542 25.7819 77.6551C26.1289 77.7885 26.4808 77.9127 26.8326 78.0342C27.13 78.1382 27.4274 78.2429 27.729 78.34C28.0864 78.4559 28.4439 78.562 28.8111 78.6674C29.1085 78.7547 29.4073 78.8433 29.7075 78.9236C29.8233 78.955 29.9406 78.9795 30.0565 79.0095C25.8245 74.8997 22.6844 69.7999 20.9189 64.171C17.5253 65.0667 14.24 66.331 11.1222 67.9429C11.1641 67.9855 11.2039 68.0316 11.2458 68.0756C11.4601 68.3073 11.6912 68.5321 11.9243 68.759Z" fill="#fff"/>
<path d="M9.17933 65.7725C12.6141 63.912 16.2561 62.4627 20.0295 61.4546C18.1795 55.0215 17.2084 48.3677 17.1434 41.6742H0.000488281C0.312547 50.5005 3.53994 58.9749 9.17933 65.7725Z" fill="#fff"/>
</svg>
