<svg width="81" height="92" viewBox="0 0 81 92" fill="#fff" xmlns="http://www.w3.org/2000/svg">
<path d="M27.311 12.755C27.311 5.711 33.022 0 40.067 0C47.11 0 52.821 5.711 52.821 12.755C52.821 19.799 47.11 25.51 40.067 25.51C33.022 25.51 27.311 19.799 27.311 12.755ZM46.196 34.2C46.325 31.423 47.28 28.852 48.819 26.726C47.739 26.5 46.624 26.38 45.479 26.38H34.656C33.515 26.38 32.4 26.499 31.326 26.723C32.963 28.994 33.943 31.766 33.959 34.768C35.947 33.673 38.23 33.05 40.656 33.05C42.624 33.05 44.497 33.46 46.196 34.2ZM48.356 35.344C52.061 37.667 54.659 41.598 55.132 46.161C56.643 46.867 58.32 47.273 60.098 47.273C66.589 47.273 71.85 42.012 71.85 35.522C71.85 29.031 66.589 23.77 60.098 23.77C53.669 23.771 48.454 28.938 48.356 35.344ZM40.656 59.407C47.147 59.407 52.408 54.144 52.408 47.654C52.408 41.165 47.146 35.903 40.656 35.903C34.166 35.903 28.902 41.165 28.902 47.654C28.902 54.145 34.167 59.407 40.656 59.407ZM45.641 60.207H35.669C27.372 60.207 20.622 66.958 20.622 75.254V87.45L20.653 87.64L21.493 87.904C29.411 90.377 36.29 91.203 41.952 91.203C53.011 91.203 59.421 88.051 59.816 87.849L60.601 87.451H60.685V75.254C60.688 66.958 53.938 60.207 45.641 60.207ZM65.085 48.076H55.19C55.083 52.035 53.393 55.599 50.72 58.164C58.095 60.357 63.491 67.195 63.491 75.273V79.032C73.261 78.673 78.891 75.904 79.262 75.719L80.047 75.321H80.131V63.122C80.131 54.826 73.381 48.076 65.085 48.076ZM20.036 47.273C22.335 47.273 24.474 46.603 26.286 45.46C26.862 41.703 28.876 38.42 31.753 36.184C31.765 35.964 31.786 35.746 31.786 35.524C31.786 29.033 26.524 23.772 20.036 23.772C13.544 23.772 8.284 29.033 8.284 35.524C8.283 42.013 13.544 47.273 20.036 47.273ZM30.589 58.164C27.929 55.613 26.245 52.066 26.122 48.133C25.755 48.106 25.392 48.076 25.018 48.076H15.047C6.75 48.076 0 54.826 0 63.122V75.318L0.0310001 75.507L0.871 75.771C7.223 77.755 12.892 78.668 17.816 78.957V75.273C17.818 67.195 23.213 60.357 30.589 58.164Z" fill="#fff"/>
</svg>
