<svg width="97" height="170" viewBox="0 0 97 170" fill="none" xmlns="http://www.w3.org/2000/svg">
<path d="M48.7682 0C54.6982 0 59.4891 4.74805 59.4891 10.625V22.4785C60.0252 22.5449 60.5277 22.6113 61.0638 22.7109C61.1978 22.7441 61.2983 22.7441 61.4323 22.7773L77.5137 25.6992C83.3432 26.7617 87.196 32.3066 86.124 38.0508C85.0519 43.7949 79.4569 47.6465 73.6609 46.584L57.747 43.6953C47.2606 42.168 38.0137 43.1973 31.5142 45.7539C25.0146 48.3105 22.4014 51.8301 21.7983 55.084C21.1283 58.6367 21.6308 60.6289 22.2004 61.8574C22.8034 63.1523 24.043 64.6133 26.4887 66.2402C31.9497 69.793 40.3254 72.1172 51.1804 74.9727L52.152 75.2383C61.7338 77.7617 73.4599 80.8164 82.1706 86.4609C86.928 89.5488 91.4174 93.7324 94.1982 99.5762C97.0459 105.52 97.649 112.16 96.3423 119.232C94.0306 131.85 85.2529 140.283 74.3644 144.699C69.7745 146.559 64.7826 147.754 59.4891 148.352V159.375C59.4891 165.252 54.6982 170 48.7682 170C42.8382 170 38.0472 165.252 38.0472 159.375V147.787C37.9132 147.754 37.7457 147.754 37.6117 147.721H37.5447C29.37 146.459 15.9353 142.973 6.88952 138.988C1.49555 136.598 -0.950162 130.322 1.46205 124.977C3.87426 119.631 10.2063 117.207 15.6003 119.598C22.6024 122.686 34.1274 125.74 40.7945 126.77C51.4819 128.33 60.2932 127.434 66.2567 125.01C71.9187 122.719 74.4984 119.398 75.2355 115.414C75.8721 111.895 75.3695 109.869 74.8 108.641C74.1634 107.313 72.9238 105.852 70.4446 104.225C64.9501 100.672 56.5409 98.3477 45.6524 95.4922L44.7143 95.2598C35.166 92.7363 23.44 89.6484 14.7292 84.0039C9.9718 80.916 5.5159 76.6992 2.73516 70.8555C-0.0790851 64.9121 -0.648635 58.2715 0.691482 51.1992C3.10369 38.5156 12.6855 30.2812 23.574 25.998C28.0299 24.2383 32.9213 23.043 38.0472 22.3457V10.625C38.0472 4.74805 42.8382 0 48.7682 0Z" fill="white"/>
</svg>
