<svg width="176" height="154" viewBox="0 0 176 154" fill="none" xmlns="http://www.w3.org/2000/svg">
<path d="M22 11C22 4.91562 17.0844 0 11 0C4.91562 0 0 4.91562 0 11V126.5C0 141.694 12.3062 154 27.5 154H165C171.084 154 176 149.084 176 143C176 136.916 171.084 132 165 132H27.5C24.475 132 22 129.525 22 126.5V11ZM161.769 40.7688C166.066 36.4719 166.066 29.4938 161.769 25.1969C157.472 20.9 150.494 20.9 146.197 25.1969L110 61.4281L90.2688 41.6969C85.9719 37.4 78.9938 37.4 74.6969 41.6969L36.1969 80.1969C31.9 84.4937 31.9 91.4719 36.1969 95.7688C40.4938 100.066 47.4719 100.066 51.7688 95.7688L82.5 65.0719L102.231 84.8031C106.528 89.1 113.506 89.1 117.803 84.8031L161.803 40.8031L161.769 40.7688Z" fill="white"/>
</svg>
