<svg width="218" height="174" viewBox="0 0 218 174" fill="none" xmlns="http://www.w3.org/2000/svg">
<path d="M109 0.347656C114.979 0.347656 119.81 5.19649 119.81 11.1982V32.8993H160.347C173.792 32.8993 184.669 43.8176 184.669 57.313V149.543C184.669 163.038 173.792 173.956 160.347 173.956H57.6531C44.2084 173.956 33.331 163.038 33.331 149.543V57.313C33.331 43.8176 44.2084 32.8993 57.6531 32.8993H98.1901V11.1982C98.1901 5.19649 103.021 0.347656 109 0.347656ZM71.1655 130.554C68.1928 130.554 65.7605 132.996 65.7605 135.979C65.7605 138.963 68.1928 141.405 71.1655 141.405H81.9753C84.9481 141.405 87.3803 138.963 87.3803 135.979C87.3803 132.996 84.9481 130.554 81.9753 130.554H71.1655ZM103.595 130.554C100.622 130.554 98.1901 132.996 98.1901 135.979C98.1901 138.963 100.622 141.405 103.595 141.405H114.405C117.378 141.405 119.81 138.963 119.81 135.979C119.81 132.996 117.378 130.554 114.405 130.554H103.595ZM136.025 130.554C133.052 130.554 130.62 132.996 130.62 135.979C130.62 138.963 133.052 141.405 136.025 141.405H146.835C149.807 141.405 152.239 138.963 152.239 135.979C152.239 132.996 149.807 130.554 146.835 130.554H136.025ZM90.0827 87.152C90.0827 83.5548 88.6591 80.105 86.1251 77.5614C83.591 75.0178 80.1541 73.5888 76.5704 73.5888C72.9867 73.5888 69.5498 75.0178 67.0157 77.5614C64.4817 80.105 63.0581 83.5548 63.0581 87.152C63.0581 90.7492 64.4817 94.199 67.0157 96.7426C69.5498 99.2862 72.9867 100.715 76.5704 100.715C80.1541 100.715 83.591 99.2862 86.1251 96.7426C88.6591 94.199 90.0827 90.7492 90.0827 87.152ZM141.43 100.715C145.013 100.715 148.45 99.2862 150.984 96.7426C153.518 94.199 154.942 90.7492 154.942 87.152C154.942 83.5548 153.518 80.105 150.984 77.5614C148.45 75.0178 145.013 73.5888 141.43 73.5888C137.846 73.5888 134.409 75.0178 131.875 77.5614C129.341 80.105 127.917 83.5548 127.917 87.152C127.917 90.7492 129.341 94.199 131.875 96.7426C134.409 99.2862 137.846 100.715 141.43 100.715ZM17.1162 76.3015H22.5211V141.405H17.1162C8.16424 141.405 0.901367 134.115 0.901367 125.129V92.5773C0.901367 83.5917 8.16424 76.3015 17.1162 76.3015ZM200.884 76.3015C209.836 76.3015 217.099 83.5917 217.099 92.5773V125.129C217.099 134.115 209.836 141.405 200.884 141.405H195.479V76.3015H200.884Z" fill="white"/>
</svg>
